# xmcd
#
# Track frame offsets: 
#        150
#        8208
#        18381
#        28507
#        39718
#        47299
#        52402
#        58609
#        69408
#        78969
#        93250
#        102174
#        120292
#        136575
#        159512
#        180622
#        197904
#        218444
#        239512
#
# Disc length: 3498 seconds
#
# Revision: 1
# Processed by: cddbd v1.5.2PL0 Copyright (c) Steve Scherf et al.
# Submitted via: ExactAudioCopy v1.3
#
DISCID=f00da813
DTITLE=陣內 - 俺の下であがけ Sound＆D
DYEAR=2003
DGENRE=Game Drama
TTITLE0=瓜生大成 - Main Theme～俺の下であがけ～
TTITLE1=瓜生大成 - 社長、絶好調。
TTITLE2=瓜生大成 - THE Crimson City
TTITLE3=瓜生大成 - THE NIGHTMARE
TTITLE4=瓜生大成 - 薔薇の名前
TTITLE5=瓜生大成 - 星に願いを
TTITLE6=瓜生大成 - THRILL OF GAME
TTITLE7=瓜生大成 - キャッチボールをしよう
TTITLE8=瓜生大成 - As Time Goes by
TTITLE9=瓜生大成 - 食虫花
TTITLE10=瓜生大成 - A Few Good Man
TTITLE11=緑川光・石川英郎・阪口大助・飛田展男・森川智之・釘宮理惠・小原雅一・田坂秀樹・高田ベン・天瀬まゆ - ピラルル吉岡～愛の告
TTITLE11=白～
TTITLE12=緑川光・石川英郎・阪口大助・飛田展男・森川智之・釘宮理惠・小原雅一・田坂秀樹・高田ベン・天瀬まゆ - ピラルル吉岡～愛の歓
TTITLE12=び～
TTITLE13=緑川光・石川英郎・阪口大助・飛田展男・森川智之・釘宮理惠・小原雅一・田坂秀樹・高田ベン・天瀬まゆ - ピラルル吉岡～愛の嵐
TTITLE13=～
TTITLE14=緑川光・石川英郎・阪口大助・飛田展男・森川智之・釘宮理惠・小原雅一・田坂秀樹・高田ベン・天瀬まゆ - 忠犬?サンダー vs
TTITLE14=山口親子
TTITLE15=緑川光・石川英郎・阪口大助・飛田展男・森川智之・釘宮理惠・小原雅一・田坂秀樹・高田ベン・天瀬まゆ - 忠犬?サンダー vs
TTITLE15=清水新
TTITLE16=緑川光・石川英郎・阪口大助・飛田展男・森川智之・釘宮理惠・小原雅一・田坂秀樹・高田ベン・天瀬まゆ - 忠犬?サンダー vs
TTITLE16=黒崎壱哉
TTITLE17=緑川光・石川英郎・阪口大助・飛田展男・森川智之・釘宮理惠・小原雅一・田坂秀樹・高田ベン・天瀬まゆ - Brother Pr
TTITLE17=ince
TTITLE18=緑川光・石川英郎・阪口大助・飛田展男・森川智之・釘宮理惠・小原雅一・田坂秀樹・高田ベン・天瀬まゆ - 借金戦隊クロサキファ
TTITLE18=イブ 第1,020,345,729話～壮絶!メテオストライク～
EXTD=YEAR: 2003
EXTT0=
EXTT1=
EXTT2=
EXTT3=
EXTT4=
EXTT5=
EXTT6=
EXTT7=
EXTT8=
EXTT9=
EXTT10=
EXTT11=
EXTT12=
EXTT13=
EXTT14=
EXTT15=
EXTT16=
EXTT17=
EXTT18=
PLAYORDER=
